PathFileType	4	(X/Y/Z)	C:\Users\86182\Documents\cortex\Trimmed_M4_H14.trc
DataRate	CameraRate	NumFrames	NumMarkers	Units	OrigDataRate	OrigDataStartFrame	OrigNumFrames
100.00	100.00	       98	2	mm	100.00	181	       901
Frame#	Time	gripper			box			
		X1	Y1	Z1	X2	Y2	Z2	

181	1.800	277.91812	150.10913	228.24222	279.99744	146.76022	92.35957	
182	1.810	277.54465	150.20462	228.82933	279.97855	146.79054	92.81566	
183	1.820	277.21033	150.29384	229.39986	279.95853	146.82642	93.27251	
184	1.830	276.94318	150.37061	229.94002	279.93698	146.86401	93.72545	
185	1.840	276.74768	150.43307	230.44650	279.91058	146.89966	94.17123	
186	1.850	276.61655	150.48103	230.92200	279.87598	146.93092	94.60930	
187	1.860	276.53665	150.51526	231.37128	279.83469	146.95732	95.03941	
188	1.870	276.49350	150.53767	231.79913	279.79294	146.97955	95.46056	
189	1.880	276.47464	150.55081	232.21027	279.75494	146.99797	95.87273	
190	1.890	276.47006	150.55743	232.60991	279.71884	147.01196	96.27728	
191	1.900	276.47198	150.56012	233.00363	279.68094	147.02086	96.67577	
192	1.910	276.47589	150.56070	233.39719	279.64221	147.02556	97.07050	
193	1.920	276.48129	150.56021	233.79568	279.60852	147.02882	97.46568	
194	1.930	276.48996	150.55972	234.20247	279.58575	147.03354	97.86716	
195	1.940	276.50320	150.56091	234.61871	279.57602	147.04071	98.27991	
196	1.950	276.52133	150.56544	235.04417	279.57767	147.04904	98.70496	
197	1.960	276.54446	150.57413	235.47798	279.58856	147.05695	99.14001	
198	1.970	276.57211	150.58667	235.91873	279.60703	147.06519	99.58334	
199	1.980	276.60248	150.60211	236.36473	279.62936	147.07660	100.03610	
200	1.990	276.63181	150.61998	236.81512	279.64914	147.09348	100.50029	
201	2.000	276.65582	150.64085	237.26958	279.66220	147.11542	100.97476	
202	2.010	276.67145	150.66536	237.72701	279.67065	147.13956	101.45213	
203	2.020	276.67743	150.69281	238.18538	279.68195	147.16255	101.92101	
204	2.030	276.67313	150.72134	238.64215	279.70609	147.18201	102.37114	
205	2.040	276.65939	150.74907	239.09448	279.75424	147.19643	102.79459	
206	2.050	276.63907	150.77475	239.53993	279.83768	147.20450	103.18309	
207	2.060	276.61508	150.79782	239.97725	279.96597	147.20480	103.52857	
208	2.070	276.58884	150.81781	240.40581	280.14313	147.19589	103.82879	
209	2.080	276.56125	150.83409	240.82558	280.36063	147.17731	104.09399	
210	2.090	276.53400	150.84598	241.23865	280.58447	147.15305	104.35147	
211	2.100	276.50876	150.85345	241.64935	280.75052	147.13422	104.64386	
212	2.110	276.48682	150.85748	242.06165	280.79840	147.13358	105.00890	
213	2.120	276.47021	150.85953	242.47729	280.72382	147.15428	105.45020	
214	2.130	276.46176	150.86032	242.89645	280.57733	147.18816	105.93860	
215	2.140	276.46329	150.85933	243.31836	280.40607	147.22618	106.44707	
216	2.150	276.47421	150.85574	243.74225	280.22089	147.26549	106.97090	
217	2.160	276.49127	150.84959	244.16876	280.02332	147.30550	107.51108	
218	2.170	276.50992	150.84145	244.59976	279.83405	147.34296	108.05478	
219	2.180	276.52637	150.83119	245.03563	279.67957	147.37375	108.58250	
220	2.190	276.53882	150.81799	245.47498	279.57169	147.39597	109.08371	
221	2.200	276.54697	150.80135	245.91695	279.50894	147.40970	109.55870	
222	2.210	276.54916	150.78236	246.36111	279.48334	147.41641	110.01254	
223	2.220	276.54123	150.76285	246.80547	279.48236	147.41895	110.45091	
224	2.230	276.52014	150.74333	247.24634	279.49060	147.42017	110.87845	
225	2.240	276.48712	150.72345	247.68060	279.49490	147.42119	111.29750	
226	2.250	276.44513	150.70348	248.10736	279.48895	147.42146	111.70844	
227	2.260	276.39624	150.68521	248.52821	279.47372	147.42000	112.11177	
228	2.270	276.34262	150.67120	248.94574	279.45389	147.41641	112.51065	
229	2.280	276.28799	150.66306	249.36140	279.43292	147.41170	112.90981	
230	2.290	276.23712	150.65990	249.77455	279.41104	147.40770	113.31152	
231	2.300	276.19562	150.65891	250.18469	279.38602	147.40588	113.71455	
232	2.310	276.16867	150.65788	250.59402	279.35654	147.40616	114.11768	
233	2.320	276.15787	150.65680	251.00656	279.32504	147.40735	114.52290	
234	2.330	276.15903	150.65671	251.42473	279.29678	147.40907	114.93456	
235	2.340	276.16541	150.65797	251.84845	279.27591	147.41226	115.35590	
236	2.350	276.17340	150.66020	252.27655	279.26328	147.41759	115.78696	
237	2.360	276.18332	150.66325	252.70804	279.25729	147.42453	116.22517	
238	2.370	276.19626	150.66768	253.14285	279.25714	147.43217	116.66779	
239	2.380	276.21179	150.67435	253.58084	279.26352	147.43973	117.11357	
240	2.390	276.22861	150.68327	254.02034	279.27765	147.44664	117.56190	
241	2.400	276.24469	150.69313	254.45886	279.30219	147.45285	118.00902	
242	2.410	276.25800	150.70227	254.89598	279.34351	147.45816	118.44597	
243	2.420	276.26755	150.70985	255.33295	279.41153	147.46040	118.86185	
244	2.430	276.27328	150.71597	255.76942	279.51819	147.45551	119.24846	
245	2.440	276.27454	150.72134	256.20248	279.67551	147.44012	119.60118	
246	2.450	276.27048	150.72699	256.62949	279.89050	147.41357	119.91749	
247	2.460	276.26221	150.73390	257.05069	280.15408	147.37663	120.19987	
248	2.470	276.25351	150.74258	257.46878	280.42776	147.33197	120.46466	
249	2.480	276.24832	150.75241	257.88626	280.64584	147.28757	120.74571	
250	2.490	276.24734	150.76175	258.30411	280.75494	147.25360	121.07597	
251	2.500	276.24710	150.76967	258.72205	280.76291	147.23213	121.45973	
252	2.510	276.24438	150.77676	259.14035	280.72476	147.21544	121.87473	
253	2.520	276.24039	150.78386	259.56085	280.67258	147.19827	122.30521	
254	2.530	276.23886	150.79036	259.98535	280.57852	147.18683	122.76263	
255	2.540	276.24246	150.79512	260.41351	280.39615	147.19272	123.26947	
256	2.550	276.25198	150.79811	260.84351	280.12750	147.22034	123.82744	
257	2.560	276.26709	150.80093	261.27423	279.83054	147.26263	124.41127	
258	2.570	276.28638	150.80551	261.70593	279.56641	147.30824	124.99037	
259	2.580	276.30838	150.81252	262.13885	279.36481	147.34901	125.54486	
260	2.590	276.33157	150.82118	262.57291	279.22845	147.38194	126.06645	
261	2.600	276.35385	150.83057	263.00812	279.14557	147.40727	126.55675	
262	2.610	276.37250	150.84082	263.44412	279.09842	147.42616	127.02437	
263	2.620	276.38544	150.85263	263.88055	279.06995	147.43950	127.47878	
264	2.630	276.39221	150.86563	264.31680	279.04669	147.44772	127.92471	
265	2.640	276.39420	150.87801	264.75098	279.02002	147.45129	128.36174	
266	2.650	276.39294	150.88794	265.17987	278.98611	147.45111	128.78920	
267	2.660	276.38870	150.89508	265.60147	278.94507	147.44861	129.20984	
268	2.670	276.38071	150.90085	266.01587	278.90070	147.44489	129.62782	
269	2.680	276.36975	150.90685	266.42444	278.85892	147.44003	130.04488	
270	2.690	276.35922	150.91290	266.82944	278.82449	147.43414	130.45956	
271	2.700	276.35266	150.91716	267.23364	278.79919	147.42816	130.87009	
272	2.710	276.35165	150.91835	267.63913	278.78250	147.42319	131.27751	
273	2.720	276.35599	150.91737	268.04706	278.77319	147.41943	131.68562	
274	2.730	276.36417	150.91602	268.45895	278.77118	147.41586	132.09727	
275	2.740	276.37421	150.91498	268.87607	278.77811	147.41103	132.51164	
276	2.750	276.38397	150.91348	269.29819	278.79544	147.40404	132.92595	
277	2.760	276.39206	150.91057	269.72482	278.82202	147.39517	133.33946	
278	2.770	276.39755	150.90555	270.15677	278.85458	147.38603	133.75456	
